<svg xmlns="http://www.w3.org/2000/svg" width="752pt" height="752pt" version="1.1" viewBox="130 130 502 502">
 <g>
  <rect width="752" height="752" fill="#fff"/>
  <path d="m573.96 461.25c-2.8398-5.6836-115.55 48.305-142.55-18.941-30.781-77.195-31.73-211.69-40.254-234.89-8.5234-23.211-19.891-71.988-108.45-51.148-84.773 19.887-112.71 43.566-102.77 71.508 0.47266 2.8398 0.47266 5.2109 0.94531 7.5781 1.8945 7.1055 5.2109 8.9961 7.5781 4.2617 2.3672-5.2109 6.1562-3.7891 8.9961 2.8398 2.8398 6.6289 5.6836 5.6836 7.1055-2.3672s5.6836-8.0508 9.4727 0.47266c3.7891 8.0508 8.5234 7.5781 10.418-0.94531s6.6289-10.418 10.418-3.7891c3.7891 6.6289 9.9453 6.1562 13.734-0.94531 0.94531-1.8945 1.8945-2.8398 2.8398-3.7891h5.6836c0.47266 0.94531 0.94531 1.8945 1.4219 3.7891 1.8945 7.1055 5.6836 8.0508 8.9961 2.3672 0.94531-1.4219 0.94531-3.7891 0-6.1562l35.047-0.47266-34.57 16.574c-5.6836-3.7891-9.9453-3.3164-9.9453 1.4219 0 5.6836-4.2617 5.6836-9.4727 0.47266-5.2109-5.2109-7.5781-2.8398-5.6836 5.2109 0.47266 2.3672 0.47266 3.7891 0.47266 4.7344l-3.7891 1.8945c-1.4219-0.47266-3.3164-1.4219-5.2109-3.3164-6.6289-6.1562-10.891-3.7891-9.4727 4.7344 0.47266 2.3672 0.47266 3.7891 0.47266 5.6836l-6.6289 3.3164c-0.47266-0.47266-1.4219-0.47266-1.8945-1.4219-6.1562-4.7344-11.84-2.8398-12.312 4.2617-0.47266 2.3672-0.94531 3.7891-1.8945 4.7344l-3.3164 1.4219c-1.4219 0-2.8398-0.94531-4.2617-2.3672-4.2617-4.7344-8.5234-1.8945-8.9961 5.6836-0.47266 4.2617 3.3164 7.5781 8.9961 8.5234 3.7891 2.3672 10.418 3.7891 20.836 3.7891 24.625-0.94531 46.883-10.418 59.199-0.94531 4.2617 3.3164 6.6289 35.992 6.6289 77.668-0.47266 0.47266-1.4219 1.4219-1.8945 2.3672-8.0508 8.0508-19.418 6.1562-28.887 8.9961-4.2617 1.4219-8.9961 2.8398-13.734 5.2109-3.7891 1.8945-8.9961 3.3164-10.891 7.1055-1.4219 2.8398-1.4219 7.5781-0.47266 10.418 0.47266 1.4219 2.8398 5.6836 4.2617 4.7344 1.4219-0.47266 1.4219-4.2617 1.8945-5.6836 2.8398-0.47266 2.3672 4.7344 4.2617-0.94531 0.94531-2.8398 0.47266-4.2617 3.7891-5.2109 5.6836-1.8945 12.785 0 18.469 0.47266 3.3164 0.47266 6.6289 0.47266 9.4727 0.47266 1.8945 0 5.2109-0.47266 6.1562 0.94531 2.8398 3.7891-5.6836 7.5781-7.5781 9.4727-4.2617 3.7891-7.5781 8.5234-10.891 12.785-1.8945 2.8398-5.2109 6.6289-5.2109 10.418 0 2.3672 2.8398 8.0508 4.2617 9.4727 2.3672 1.8945 3.7891 2.8398 4.7344 0.47266 0.47266-1.4219-0.47266-1.4219 0.47266-2.8398 0-0.47266 2.3672 0 2.8398 0 0.94531-2.8398-2.8398-4.7344-2.3672-7.5781 0.94531-3.7891 6.6289-6.1562 9.4727-7.5781 1.8945-0.94531 7.5781-3.7891 9.4727-2.3672 0.47266 0 0.47266 0.47266 0.94531 0.94531-1.4219 65.828-6.6289 133.08-15.156 139.71-16.102 12.785-25.102 15.156-17.996 22.73l31.258-0.94531s-2.8398-56.828 38.359-60.617c41.688-2.8359 30.793 58.254 30.793 58.254s-30.309 7.1055-21.312 17.051l36.938-1.4219s-9.9453-78.613 72.93-83.824c69.148-4.7344 140.66-49.25 137.82-54.461zm-268.52-271.84c-2.8398 0-5.6836-2.3672-5.6836-5.2109 0-2.8398 2.3672-5.6836 5.2109-5.6836 2.8398 0 5.6836 2.3672 5.6836 5.2109 0.47266 2.8438-1.8945 5.6836-5.2109 5.6836z"/>
 </g>
</svg>